<mxfile host="app.diagrams.net" agent="Mozilla/5.0 (Windows NT 10.0; Win64; x64) AppleWebKit/537.36 (KHTML, like Gecko) Chrome/118.0.0.0 Safari/537.36" version="28.0.1">
  <diagram name="第 1 页" id="bLg1n2aG3RuGjTB1i6qY">
    <mxGraphModel dx="1206" dy="526" grid="1" gridSize="10" guides="1" tooltips="1" connect="1" arrows="1" fold="1" page="1" pageScale="1" pageWidth="827" pageHeight="1169" math="0" shadow="0">
      <root>
        <mxCell id="0" />
        <mxCell id="1" parent="0" />
        <mxCell id="rXJPLOeFARJxz8nDChNl-27" value="&lt;b&gt;单向链表&lt;/b&gt;" style="text;strokeColor=none;align=center;fillColor=none;html=1;verticalAlign=middle;whiteSpace=wrap;rounded=0;" vertex="1" parent="1">
          <mxGeometry x="105" y="240" width="60" height="20" as="geometry" />
        </mxCell>
        <mxCell id="rXJPLOeFARJxz8nDChNl-95" value="&lt;b&gt;双向链表&lt;/b&gt;" style="text;strokeColor=none;align=center;fillColor=none;html=1;verticalAlign=middle;whiteSpace=wrap;rounded=0;" vertex="1" parent="1">
          <mxGeometry x="100" y="380" width="60" height="20" as="geometry" />
        </mxCell>
        <mxCell id="rXJPLOeFARJxz8nDChNl-123" value="&lt;b&gt;循环链表&lt;/b&gt;" style="text;strokeColor=none;align=center;fillColor=none;html=1;verticalAlign=middle;whiteSpace=wrap;rounded=0;" vertex="1" parent="1">
          <mxGeometry x="100" y="520" width="50" height="20" as="geometry" />
        </mxCell>
        <mxCell id="rXJPLOeFARJxz8nDChNl-160" value="&lt;b&gt;双向循环链表&lt;/b&gt;" style="text;strokeColor=none;align=center;fillColor=none;html=1;verticalAlign=middle;whiteSpace=wrap;rounded=0;" vertex="1" parent="1">
          <mxGeometry x="105" y="680" width="75" height="20" as="geometry" />
        </mxCell>
        <mxCell id="rXJPLOeFARJxz8nDChNl-20" style="edgeStyle=orthogonalEdgeStyle;rounded=0;orthogonalLoop=1;jettySize=auto;html=1;exitX=1;exitY=0.5;exitDx=0;exitDy=0;entryX=0;entryY=0.5;entryDx=0;entryDy=0;" edge="1" parent="1" target="rXJPLOeFARJxz8nDChNl-1">
          <mxGeometry relative="1" as="geometry">
            <mxPoint x="131.5" y="295" as="sourcePoint" />
          </mxGeometry>
        </mxCell>
        <mxCell id="rXJPLOeFARJxz8nDChNl-6" value="Head" style="text;strokeColor=none;align=center;fillColor=none;html=1;verticalAlign=middle;whiteSpace=wrap;rounded=0;" vertex="1" parent="1">
          <mxGeometry x="94" y="285" width="40" height="20" as="geometry" />
        </mxCell>
        <mxCell id="rXJPLOeFARJxz8nDChNl-9" value="" style="group;fillColor=#CCE5FF;container=0;" vertex="1" connectable="0" parent="1">
          <mxGeometry x="184" y="270" width="120" height="50" as="geometry" />
        </mxCell>
        <mxCell id="rXJPLOeFARJxz8nDChNl-10" value="" style="group;fillColor=#CCE5FF;container=0;" vertex="1" connectable="0" parent="1">
          <mxGeometry x="354" y="270" width="120" height="50" as="geometry" />
        </mxCell>
        <mxCell id="rXJPLOeFARJxz8nDChNl-22" style="edgeStyle=orthogonalEdgeStyle;rounded=0;orthogonalLoop=1;jettySize=auto;html=1;entryX=0;entryY=0.5;entryDx=0;entryDy=0;" edge="1" parent="1" source="rXJPLOeFARJxz8nDChNl-2" target="rXJPLOeFARJxz8nDChNl-11">
          <mxGeometry relative="1" as="geometry" />
        </mxCell>
        <mxCell id="rXJPLOeFARJxz8nDChNl-24" style="edgeStyle=orthogonalEdgeStyle;rounded=0;orthogonalLoop=1;jettySize=auto;html=1;exitX=1;exitY=0.5;exitDx=0;exitDy=0;entryX=0;entryY=0.5;entryDx=0;entryDy=0;" edge="1" parent="1" source="rXJPLOeFARJxz8nDChNl-12" target="rXJPLOeFARJxz8nDChNl-16">
          <mxGeometry relative="1" as="geometry" />
        </mxCell>
        <mxCell id="rXJPLOeFARJxz8nDChNl-25" value="NULL" style="text;strokeColor=none;align=center;fillColor=none;html=1;verticalAlign=middle;whiteSpace=wrap;rounded=0;" vertex="1" parent="1">
          <mxGeometry x="694" y="287.5" width="40" height="15" as="geometry" />
        </mxCell>
        <mxCell id="rXJPLOeFARJxz8nDChNl-26" style="edgeStyle=orthogonalEdgeStyle;rounded=0;orthogonalLoop=1;jettySize=auto;html=1;entryX=0;entryY=0.5;entryDx=0;entryDy=0;" edge="1" parent="1" source="rXJPLOeFARJxz8nDChNl-17" target="rXJPLOeFARJxz8nDChNl-25">
          <mxGeometry relative="1" as="geometry" />
        </mxCell>
        <mxCell id="rXJPLOeFARJxz8nDChNl-163" value="" style="group" vertex="1" connectable="0" parent="1">
          <mxGeometry x="184" y="270" width="120" height="50" as="geometry" />
        </mxCell>
        <mxCell id="rXJPLOeFARJxz8nDChNl-1" value="" style="rounded=1;whiteSpace=wrap;html=1;fillColor=#CCE5FF;" vertex="1" parent="rXJPLOeFARJxz8nDChNl-163">
          <mxGeometry width="120" height="50" as="geometry" />
        </mxCell>
        <mxCell id="rXJPLOeFARJxz8nDChNl-2" value="" style="shape=partialRectangle;whiteSpace=wrap;html=1;right=0;top=0;bottom=0;fillColor=none;routingCenterX=-0.5;" vertex="1" parent="rXJPLOeFARJxz8nDChNl-163">
          <mxGeometry x="70" width="50" height="50" as="geometry" />
        </mxCell>
        <mxCell id="rXJPLOeFARJxz8nDChNl-3" value="Data1" style="text;strokeColor=none;align=center;fillColor=none;html=1;verticalAlign=middle;whiteSpace=wrap;rounded=0;" vertex="1" parent="rXJPLOeFARJxz8nDChNl-163">
          <mxGeometry x="20" y="15" width="40" height="20" as="geometry" />
        </mxCell>
        <mxCell id="rXJPLOeFARJxz8nDChNl-4" value="Next" style="text;strokeColor=none;align=center;fillColor=none;html=1;verticalAlign=middle;whiteSpace=wrap;rounded=0;" vertex="1" parent="rXJPLOeFARJxz8nDChNl-163">
          <mxGeometry x="80" y="15" width="30" height="20" as="geometry" />
        </mxCell>
        <mxCell id="rXJPLOeFARJxz8nDChNl-164" value="" style="group" vertex="1" connectable="0" parent="1">
          <mxGeometry x="354" y="270" width="120" height="50" as="geometry" />
        </mxCell>
        <mxCell id="rXJPLOeFARJxz8nDChNl-11" value="" style="rounded=1;whiteSpace=wrap;html=1;fillColor=#CCE5FF;" vertex="1" parent="rXJPLOeFARJxz8nDChNl-164">
          <mxGeometry width="120" height="50" as="geometry" />
        </mxCell>
        <mxCell id="rXJPLOeFARJxz8nDChNl-12" value="" style="shape=partialRectangle;whiteSpace=wrap;html=1;right=0;top=0;bottom=0;fillColor=none;routingCenterX=-0.5;" vertex="1" parent="rXJPLOeFARJxz8nDChNl-164">
          <mxGeometry x="70" width="50" height="50" as="geometry" />
        </mxCell>
        <mxCell id="rXJPLOeFARJxz8nDChNl-13" value="Data2" style="text;strokeColor=none;align=center;fillColor=none;html=1;verticalAlign=middle;whiteSpace=wrap;rounded=0;" vertex="1" parent="rXJPLOeFARJxz8nDChNl-164">
          <mxGeometry x="20" y="15" width="40" height="20" as="geometry" />
        </mxCell>
        <mxCell id="rXJPLOeFARJxz8nDChNl-14" value="Next" style="text;strokeColor=none;align=center;fillColor=none;html=1;verticalAlign=middle;whiteSpace=wrap;rounded=0;" vertex="1" parent="rXJPLOeFARJxz8nDChNl-164">
          <mxGeometry x="80" y="15" width="30" height="20" as="geometry" />
        </mxCell>
        <mxCell id="rXJPLOeFARJxz8nDChNl-165" value="" style="group" vertex="1" connectable="0" parent="1">
          <mxGeometry x="524" y="270" width="120" height="50" as="geometry" />
        </mxCell>
        <mxCell id="rXJPLOeFARJxz8nDChNl-16" value="" style="rounded=1;whiteSpace=wrap;html=1;fillColor=#CCE5FF;" vertex="1" parent="rXJPLOeFARJxz8nDChNl-165">
          <mxGeometry width="120" height="50" as="geometry" />
        </mxCell>
        <mxCell id="rXJPLOeFARJxz8nDChNl-17" value="" style="shape=partialRectangle;whiteSpace=wrap;html=1;right=0;top=0;bottom=0;fillColor=none;routingCenterX=-0.5;" vertex="1" parent="rXJPLOeFARJxz8nDChNl-165">
          <mxGeometry x="70" width="50" height="50" as="geometry" />
        </mxCell>
        <mxCell id="rXJPLOeFARJxz8nDChNl-18" value="Data3" style="text;strokeColor=none;align=center;fillColor=none;html=1;verticalAlign=middle;whiteSpace=wrap;rounded=0;" vertex="1" parent="rXJPLOeFARJxz8nDChNl-165">
          <mxGeometry x="20" y="15" width="40" height="20" as="geometry" />
        </mxCell>
        <mxCell id="rXJPLOeFARJxz8nDChNl-19" value="Next" style="text;strokeColor=none;align=center;fillColor=none;html=1;verticalAlign=middle;whiteSpace=wrap;rounded=0;" vertex="1" parent="rXJPLOeFARJxz8nDChNl-165">
          <mxGeometry x="80" y="15" width="30" height="20" as="geometry" />
        </mxCell>
        <mxCell id="rXJPLOeFARJxz8nDChNl-31" value="NULL" style="text;strokeColor=none;align=center;fillColor=none;html=1;verticalAlign=middle;whiteSpace=wrap;rounded=0;" vertex="1" parent="1">
          <mxGeometry x="100" y="425" width="40" height="20" as="geometry" />
        </mxCell>
        <mxCell id="rXJPLOeFARJxz8nDChNl-49" value="NULL" style="text;strokeColor=none;align=center;fillColor=none;html=1;verticalAlign=middle;whiteSpace=wrap;rounded=0;" vertex="1" parent="1">
          <mxGeometry x="700" y="427.5" width="40" height="15" as="geometry" />
        </mxCell>
        <mxCell id="rXJPLOeFARJxz8nDChNl-50" style="edgeStyle=orthogonalEdgeStyle;rounded=0;orthogonalLoop=1;jettySize=auto;html=1;entryX=0;entryY=0.5;entryDx=0;entryDy=0;" edge="1" parent="1" target="rXJPLOeFARJxz8nDChNl-49">
          <mxGeometry relative="1" as="geometry">
            <mxPoint x="650" y="435" as="sourcePoint" />
          </mxGeometry>
        </mxCell>
        <mxCell id="rXJPLOeFARJxz8nDChNl-52" style="edgeStyle=orthogonalEdgeStyle;rounded=0;orthogonalLoop=1;jettySize=auto;html=1;exitX=0;exitY=0.5;exitDx=0;exitDy=0;entryX=1;entryY=0.5;entryDx=0;entryDy=0;" edge="1" parent="1" source="rXJPLOeFARJxz8nDChNl-33" target="rXJPLOeFARJxz8nDChNl-31">
          <mxGeometry relative="1" as="geometry" />
        </mxCell>
        <mxCell id="rXJPLOeFARJxz8nDChNl-91" value="" style="endArrow=classic;startArrow=classic;html=1;rounded=0;" edge="1" parent="1">
          <mxGeometry width="50" height="50" relative="1" as="geometry">
            <mxPoint x="310" y="434.76" as="sourcePoint" />
            <mxPoint x="360" y="434.76" as="targetPoint" />
          </mxGeometry>
        </mxCell>
        <mxCell id="rXJPLOeFARJxz8nDChNl-92" value="" style="endArrow=classic;startArrow=classic;html=1;rounded=0;" edge="1" parent="1">
          <mxGeometry width="50" height="50" relative="1" as="geometry">
            <mxPoint x="480" y="434.76" as="sourcePoint" />
            <mxPoint x="530" y="434.76" as="targetPoint" />
          </mxGeometry>
        </mxCell>
        <mxCell id="rXJPLOeFARJxz8nDChNl-168" value="" style="group" vertex="1" connectable="0" parent="1">
          <mxGeometry x="190" y="410" width="120" height="50" as="geometry" />
        </mxCell>
        <mxCell id="rXJPLOeFARJxz8nDChNl-33" value="" style="rounded=1;whiteSpace=wrap;html=1;fillColor=#CCE5FF;" vertex="1" parent="rXJPLOeFARJxz8nDChNl-168">
          <mxGeometry width="120" height="50" as="geometry" />
        </mxCell>
        <mxCell id="rXJPLOeFARJxz8nDChNl-34" value="" style="shape=partialRectangle;whiteSpace=wrap;html=1;right=0;top=0;bottom=0;fillColor=none;routingCenterX=-0.5;" vertex="1" parent="rXJPLOeFARJxz8nDChNl-168">
          <mxGeometry x="80" width="40" height="50" as="geometry" />
        </mxCell>
        <mxCell id="rXJPLOeFARJxz8nDChNl-53" value="" style="shape=partialRectangle;whiteSpace=wrap;html=1;right=0;top=0;bottom=0;fillColor=none;routingCenterX=-0.5;" vertex="1" parent="rXJPLOeFARJxz8nDChNl-168">
          <mxGeometry x="40" width="40" height="50" as="geometry" />
        </mxCell>
        <mxCell id="rXJPLOeFARJxz8nDChNl-36" value="Next" style="text;strokeColor=none;align=center;fillColor=none;html=1;verticalAlign=middle;whiteSpace=wrap;rounded=0;" vertex="1" parent="rXJPLOeFARJxz8nDChNl-168">
          <mxGeometry x="85" y="15" width="30" height="20" as="geometry" />
        </mxCell>
        <mxCell id="rXJPLOeFARJxz8nDChNl-69" value="Data1" style="text;strokeColor=none;align=center;fillColor=none;html=1;verticalAlign=middle;whiteSpace=wrap;rounded=0;" vertex="1" parent="rXJPLOeFARJxz8nDChNl-168">
          <mxGeometry x="40" y="15" width="40" height="20" as="geometry" />
        </mxCell>
        <mxCell id="rXJPLOeFARJxz8nDChNl-71" value="Prev" style="text;strokeColor=none;align=center;fillColor=none;html=1;verticalAlign=middle;whiteSpace=wrap;rounded=0;" vertex="1" parent="rXJPLOeFARJxz8nDChNl-168">
          <mxGeometry y="15" width="40" height="20" as="geometry" />
        </mxCell>
        <mxCell id="rXJPLOeFARJxz8nDChNl-169" value="" style="group" vertex="1" connectable="0" parent="1">
          <mxGeometry x="360" y="410" width="120" height="50" as="geometry" />
        </mxCell>
        <mxCell id="rXJPLOeFARJxz8nDChNl-76" value="" style="rounded=1;whiteSpace=wrap;html=1;fillColor=#CCE5FF;" vertex="1" parent="rXJPLOeFARJxz8nDChNl-169">
          <mxGeometry width="120" height="50" as="geometry" />
        </mxCell>
        <mxCell id="rXJPLOeFARJxz8nDChNl-77" value="" style="shape=partialRectangle;whiteSpace=wrap;html=1;right=0;top=0;bottom=0;fillColor=none;routingCenterX=-0.5;" vertex="1" parent="rXJPLOeFARJxz8nDChNl-169">
          <mxGeometry x="80" width="40" height="50" as="geometry" />
        </mxCell>
        <mxCell id="rXJPLOeFARJxz8nDChNl-78" value="" style="shape=partialRectangle;whiteSpace=wrap;html=1;right=0;top=0;bottom=0;fillColor=none;routingCenterX=-0.5;" vertex="1" parent="rXJPLOeFARJxz8nDChNl-169">
          <mxGeometry x="40" width="40" height="50" as="geometry" />
        </mxCell>
        <mxCell id="rXJPLOeFARJxz8nDChNl-79" value="Next" style="text;strokeColor=none;align=center;fillColor=none;html=1;verticalAlign=middle;whiteSpace=wrap;rounded=0;" vertex="1" parent="rXJPLOeFARJxz8nDChNl-169">
          <mxGeometry x="85" y="15" width="30" height="20" as="geometry" />
        </mxCell>
        <mxCell id="rXJPLOeFARJxz8nDChNl-80" value="Data2" style="text;strokeColor=none;align=center;fillColor=none;html=1;verticalAlign=middle;whiteSpace=wrap;rounded=0;" vertex="1" parent="rXJPLOeFARJxz8nDChNl-169">
          <mxGeometry x="40" y="15" width="40" height="20" as="geometry" />
        </mxCell>
        <mxCell id="rXJPLOeFARJxz8nDChNl-81" value="Prev" style="text;strokeColor=none;align=center;fillColor=none;html=1;verticalAlign=middle;whiteSpace=wrap;rounded=0;" vertex="1" parent="rXJPLOeFARJxz8nDChNl-169">
          <mxGeometry y="15" width="40" height="20" as="geometry" />
        </mxCell>
        <mxCell id="rXJPLOeFARJxz8nDChNl-170" value="" style="group" vertex="1" connectable="0" parent="1">
          <mxGeometry x="530" y="410" width="120" height="50" as="geometry" />
        </mxCell>
        <mxCell id="rXJPLOeFARJxz8nDChNl-85" value="" style="rounded=1;whiteSpace=wrap;html=1;fillColor=#CCE5FF;" vertex="1" parent="rXJPLOeFARJxz8nDChNl-170">
          <mxGeometry width="120" height="50" as="geometry" />
        </mxCell>
        <mxCell id="rXJPLOeFARJxz8nDChNl-86" value="" style="shape=partialRectangle;whiteSpace=wrap;html=1;right=0;top=0;bottom=0;fillColor=none;routingCenterX=-0.5;" vertex="1" parent="rXJPLOeFARJxz8nDChNl-170">
          <mxGeometry x="80" width="40" height="50" as="geometry" />
        </mxCell>
        <mxCell id="rXJPLOeFARJxz8nDChNl-87" value="" style="shape=partialRectangle;whiteSpace=wrap;html=1;right=0;top=0;bottom=0;fillColor=none;routingCenterX=-0.5;" vertex="1" parent="rXJPLOeFARJxz8nDChNl-170">
          <mxGeometry x="40" width="40" height="50" as="geometry" />
        </mxCell>
        <mxCell id="rXJPLOeFARJxz8nDChNl-88" value="Next" style="text;strokeColor=none;align=center;fillColor=none;html=1;verticalAlign=middle;whiteSpace=wrap;rounded=0;" vertex="1" parent="rXJPLOeFARJxz8nDChNl-170">
          <mxGeometry x="85" y="15" width="30" height="20" as="geometry" />
        </mxCell>
        <mxCell id="rXJPLOeFARJxz8nDChNl-89" value="Data3" style="text;strokeColor=none;align=center;fillColor=none;html=1;verticalAlign=middle;whiteSpace=wrap;rounded=0;" vertex="1" parent="rXJPLOeFARJxz8nDChNl-170">
          <mxGeometry x="40" y="15" width="40" height="20" as="geometry" />
        </mxCell>
        <mxCell id="rXJPLOeFARJxz8nDChNl-90" value="Prev" style="text;strokeColor=none;align=center;fillColor=none;html=1;verticalAlign=middle;whiteSpace=wrap;rounded=0;" vertex="1" parent="rXJPLOeFARJxz8nDChNl-170">
          <mxGeometry y="15" width="40" height="20" as="geometry" />
        </mxCell>
        <mxCell id="rXJPLOeFARJxz8nDChNl-97" style="edgeStyle=orthogonalEdgeStyle;rounded=0;orthogonalLoop=1;jettySize=auto;html=1;exitX=1;exitY=0.5;exitDx=0;exitDy=0;entryX=0;entryY=0.5;entryDx=0;entryDy=0;" edge="1" parent="1" target="rXJPLOeFARJxz8nDChNl-100">
          <mxGeometry relative="1" as="geometry">
            <mxPoint x="137.5" y="595" as="sourcePoint" />
          </mxGeometry>
        </mxCell>
        <mxCell id="rXJPLOeFARJxz8nDChNl-98" value="Head" style="text;strokeColor=none;align=center;fillColor=none;html=1;verticalAlign=middle;whiteSpace=wrap;rounded=0;" vertex="1" parent="1">
          <mxGeometry x="100" y="585" width="40" height="20" as="geometry" />
        </mxCell>
        <mxCell id="rXJPLOeFARJxz8nDChNl-114" style="edgeStyle=orthogonalEdgeStyle;rounded=0;orthogonalLoop=1;jettySize=auto;html=1;entryX=0;entryY=0.5;entryDx=0;entryDy=0;" edge="1" parent="1" source="rXJPLOeFARJxz8nDChNl-101" target="rXJPLOeFARJxz8nDChNl-105">
          <mxGeometry relative="1" as="geometry" />
        </mxCell>
        <mxCell id="rXJPLOeFARJxz8nDChNl-115" style="edgeStyle=orthogonalEdgeStyle;rounded=0;orthogonalLoop=1;jettySize=auto;html=1;exitX=1;exitY=0.5;exitDx=0;exitDy=0;entryX=0;entryY=0.5;entryDx=0;entryDy=0;" edge="1" parent="1" source="rXJPLOeFARJxz8nDChNl-106" target="rXJPLOeFARJxz8nDChNl-110">
          <mxGeometry relative="1" as="geometry" />
        </mxCell>
        <mxCell id="rXJPLOeFARJxz8nDChNl-118" style="edgeStyle=orthogonalEdgeStyle;rounded=0;orthogonalLoop=1;jettySize=auto;html=1;entryX=0.5;entryY=0;entryDx=0;entryDy=0;" edge="1" parent="1" source="rXJPLOeFARJxz8nDChNl-111" target="rXJPLOeFARJxz8nDChNl-98">
          <mxGeometry relative="1" as="geometry">
            <Array as="points">
              <mxPoint x="670" y="595" />
              <mxPoint x="670" y="550" />
              <mxPoint x="120" y="550" />
            </Array>
          </mxGeometry>
        </mxCell>
        <mxCell id="rXJPLOeFARJxz8nDChNl-171" value="" style="group" vertex="1" connectable="0" parent="1">
          <mxGeometry x="190" y="570" width="120" height="50" as="geometry" />
        </mxCell>
        <mxCell id="rXJPLOeFARJxz8nDChNl-100" value="" style="rounded=1;whiteSpace=wrap;html=1;fillColor=#CCE5FF;" vertex="1" parent="rXJPLOeFARJxz8nDChNl-171">
          <mxGeometry width="120" height="50" as="geometry" />
        </mxCell>
        <mxCell id="rXJPLOeFARJxz8nDChNl-101" value="" style="shape=partialRectangle;whiteSpace=wrap;html=1;right=0;top=0;bottom=0;fillColor=none;routingCenterX=-0.5;" vertex="1" parent="rXJPLOeFARJxz8nDChNl-171">
          <mxGeometry x="70" width="50" height="50" as="geometry" />
        </mxCell>
        <mxCell id="rXJPLOeFARJxz8nDChNl-102" value="Data1" style="text;strokeColor=none;align=center;fillColor=none;html=1;verticalAlign=middle;whiteSpace=wrap;rounded=0;" vertex="1" parent="rXJPLOeFARJxz8nDChNl-171">
          <mxGeometry x="20" y="15" width="40" height="20" as="geometry" />
        </mxCell>
        <mxCell id="rXJPLOeFARJxz8nDChNl-103" value="Next" style="text;strokeColor=none;align=center;fillColor=none;html=1;verticalAlign=middle;whiteSpace=wrap;rounded=0;" vertex="1" parent="rXJPLOeFARJxz8nDChNl-171">
          <mxGeometry x="80" y="15" width="30" height="20" as="geometry" />
        </mxCell>
        <mxCell id="rXJPLOeFARJxz8nDChNl-172" value="" style="group" vertex="1" connectable="0" parent="1">
          <mxGeometry x="360" y="570" width="120" height="50" as="geometry" />
        </mxCell>
        <mxCell id="rXJPLOeFARJxz8nDChNl-105" value="" style="rounded=1;whiteSpace=wrap;html=1;fillColor=#CCE5FF;" vertex="1" parent="rXJPLOeFARJxz8nDChNl-172">
          <mxGeometry width="120" height="50" as="geometry" />
        </mxCell>
        <mxCell id="rXJPLOeFARJxz8nDChNl-106" value="" style="shape=partialRectangle;whiteSpace=wrap;html=1;right=0;top=0;bottom=0;fillColor=none;routingCenterX=-0.5;" vertex="1" parent="rXJPLOeFARJxz8nDChNl-172">
          <mxGeometry x="70" width="50" height="50" as="geometry" />
        </mxCell>
        <mxCell id="rXJPLOeFARJxz8nDChNl-107" value="Data2" style="text;strokeColor=none;align=center;fillColor=none;html=1;verticalAlign=middle;whiteSpace=wrap;rounded=0;" vertex="1" parent="rXJPLOeFARJxz8nDChNl-172">
          <mxGeometry x="20" y="15" width="40" height="20" as="geometry" />
        </mxCell>
        <mxCell id="rXJPLOeFARJxz8nDChNl-108" value="Next" style="text;strokeColor=none;align=center;fillColor=none;html=1;verticalAlign=middle;whiteSpace=wrap;rounded=0;" vertex="1" parent="rXJPLOeFARJxz8nDChNl-172">
          <mxGeometry x="80" y="15" width="30" height="20" as="geometry" />
        </mxCell>
        <mxCell id="rXJPLOeFARJxz8nDChNl-173" value="" style="group" vertex="1" connectable="0" parent="1">
          <mxGeometry x="530" y="570" width="120" height="50" as="geometry" />
        </mxCell>
        <mxCell id="rXJPLOeFARJxz8nDChNl-110" value="" style="rounded=1;whiteSpace=wrap;html=1;fillColor=#CCE5FF;" vertex="1" parent="rXJPLOeFARJxz8nDChNl-173">
          <mxGeometry width="120" height="50" as="geometry" />
        </mxCell>
        <mxCell id="rXJPLOeFARJxz8nDChNl-111" value="" style="shape=partialRectangle;whiteSpace=wrap;html=1;right=0;top=0;bottom=0;fillColor=none;routingCenterX=-0.5;" vertex="1" parent="rXJPLOeFARJxz8nDChNl-173">
          <mxGeometry x="70" width="50" height="50" as="geometry" />
        </mxCell>
        <mxCell id="rXJPLOeFARJxz8nDChNl-112" value="Data3" style="text;strokeColor=none;align=center;fillColor=none;html=1;verticalAlign=middle;whiteSpace=wrap;rounded=0;" vertex="1" parent="rXJPLOeFARJxz8nDChNl-173">
          <mxGeometry x="20" y="15" width="40" height="20" as="geometry" />
        </mxCell>
        <mxCell id="rXJPLOeFARJxz8nDChNl-113" value="Next" style="text;strokeColor=none;align=center;fillColor=none;html=1;verticalAlign=middle;whiteSpace=wrap;rounded=0;" vertex="1" parent="rXJPLOeFARJxz8nDChNl-173">
          <mxGeometry x="80" y="15" width="30" height="20" as="geometry" />
        </mxCell>
        <mxCell id="rXJPLOeFARJxz8nDChNl-125" value="Head" style="text;strokeColor=none;align=center;fillColor=none;html=1;verticalAlign=middle;whiteSpace=wrap;rounded=0;" vertex="1" parent="1">
          <mxGeometry x="100" y="755" width="40" height="20" as="geometry" />
        </mxCell>
        <mxCell id="rXJPLOeFARJxz8nDChNl-153" value="" style="endArrow=classic;startArrow=classic;html=1;rounded=0;" edge="1" parent="1">
          <mxGeometry width="50" height="50" relative="1" as="geometry">
            <mxPoint x="310" y="764.76" as="sourcePoint" />
            <mxPoint x="360" y="764.76" as="targetPoint" />
          </mxGeometry>
        </mxCell>
        <mxCell id="rXJPLOeFARJxz8nDChNl-154" value="" style="endArrow=classic;startArrow=classic;html=1;rounded=0;" edge="1" parent="1">
          <mxGeometry width="50" height="50" relative="1" as="geometry">
            <mxPoint x="480" y="764.76" as="sourcePoint" />
            <mxPoint x="530" y="764.76" as="targetPoint" />
          </mxGeometry>
        </mxCell>
        <mxCell id="rXJPLOeFARJxz8nDChNl-156" value="" style="endArrow=classic;startArrow=classic;html=1;rounded=0;" edge="1" parent="1">
          <mxGeometry width="50" height="50" relative="1" as="geometry">
            <mxPoint x="140" y="764.71" as="sourcePoint" />
            <mxPoint x="190" y="764.71" as="targetPoint" />
          </mxGeometry>
        </mxCell>
        <mxCell id="rXJPLOeFARJxz8nDChNl-158" value="" style="endArrow=classic;startArrow=classic;html=1;rounded=0;entryX=0.519;entryY=0.124;entryDx=0;entryDy=0;entryPerimeter=0;" edge="1" parent="1" target="rXJPLOeFARJxz8nDChNl-125">
          <mxGeometry width="50" height="50" relative="1" as="geometry">
            <mxPoint x="650" y="764.76" as="sourcePoint" />
            <mxPoint x="120" y="720" as="targetPoint" />
            <Array as="points">
              <mxPoint x="670" y="765" />
              <mxPoint x="670" y="720" />
              <mxPoint x="120" y="720" />
            </Array>
          </mxGeometry>
        </mxCell>
        <mxCell id="rXJPLOeFARJxz8nDChNl-131" value="" style="rounded=1;whiteSpace=wrap;html=1;fillColor=#CCE5FF;" vertex="1" parent="1">
          <mxGeometry x="190" y="740" width="120" height="50" as="geometry" />
        </mxCell>
        <mxCell id="rXJPLOeFARJxz8nDChNl-132" value="" style="shape=partialRectangle;whiteSpace=wrap;html=1;right=0;top=0;bottom=0;fillColor=none;routingCenterX=-0.5;" vertex="1" parent="1">
          <mxGeometry x="270" y="740" width="40" height="50" as="geometry" />
        </mxCell>
        <mxCell id="rXJPLOeFARJxz8nDChNl-133" value="" style="shape=partialRectangle;whiteSpace=wrap;html=1;right=0;top=0;bottom=0;fillColor=none;routingCenterX=-0.5;" vertex="1" parent="1">
          <mxGeometry x="230" y="740" width="40" height="50" as="geometry" />
        </mxCell>
        <mxCell id="rXJPLOeFARJxz8nDChNl-134" value="Next" style="text;strokeColor=none;align=center;fillColor=none;html=1;verticalAlign=middle;whiteSpace=wrap;rounded=0;" vertex="1" parent="1">
          <mxGeometry x="275" y="755" width="30" height="20" as="geometry" />
        </mxCell>
        <mxCell id="rXJPLOeFARJxz8nDChNl-135" value="Data1" style="text;strokeColor=none;align=center;fillColor=none;html=1;verticalAlign=middle;whiteSpace=wrap;rounded=0;" vertex="1" parent="1">
          <mxGeometry x="230" y="755" width="40" height="20" as="geometry" />
        </mxCell>
        <mxCell id="rXJPLOeFARJxz8nDChNl-136" value="Prev" style="text;strokeColor=none;align=center;fillColor=none;html=1;verticalAlign=middle;whiteSpace=wrap;rounded=0;" vertex="1" parent="1">
          <mxGeometry x="190" y="755" width="40" height="20" as="geometry" />
        </mxCell>
        <mxCell id="rXJPLOeFARJxz8nDChNl-139" value="" style="rounded=1;whiteSpace=wrap;html=1;fillColor=#CCE5FF;" vertex="1" parent="1">
          <mxGeometry x="360" y="740" width="120" height="50" as="geometry" />
        </mxCell>
        <mxCell id="rXJPLOeFARJxz8nDChNl-140" value="" style="shape=partialRectangle;whiteSpace=wrap;html=1;right=0;top=0;bottom=0;fillColor=none;routingCenterX=-0.5;" vertex="1" parent="1">
          <mxGeometry x="440" y="740" width="40" height="50" as="geometry" />
        </mxCell>
        <mxCell id="rXJPLOeFARJxz8nDChNl-141" value="" style="shape=partialRectangle;whiteSpace=wrap;html=1;right=0;top=0;bottom=0;fillColor=none;routingCenterX=-0.5;" vertex="1" parent="1">
          <mxGeometry x="400" y="740" width="40" height="50" as="geometry" />
        </mxCell>
        <mxCell id="rXJPLOeFARJxz8nDChNl-142" value="Next" style="text;strokeColor=none;align=center;fillColor=none;html=1;verticalAlign=middle;whiteSpace=wrap;rounded=0;" vertex="1" parent="1">
          <mxGeometry x="445" y="755" width="30" height="20" as="geometry" />
        </mxCell>
        <mxCell id="rXJPLOeFARJxz8nDChNl-143" value="Data2" style="text;strokeColor=none;align=center;fillColor=none;html=1;verticalAlign=middle;whiteSpace=wrap;rounded=0;" vertex="1" parent="1">
          <mxGeometry x="400" y="755" width="40" height="20" as="geometry" />
        </mxCell>
        <mxCell id="rXJPLOeFARJxz8nDChNl-144" value="Prev" style="text;strokeColor=none;align=center;fillColor=none;html=1;verticalAlign=middle;whiteSpace=wrap;rounded=0;" vertex="1" parent="1">
          <mxGeometry x="360" y="755" width="40" height="20" as="geometry" />
        </mxCell>
        <mxCell id="rXJPLOeFARJxz8nDChNl-147" value="" style="rounded=1;whiteSpace=wrap;html=1;fillColor=#CCE5FF;" vertex="1" parent="1">
          <mxGeometry x="530" y="740" width="120" height="50" as="geometry" />
        </mxCell>
        <mxCell id="rXJPLOeFARJxz8nDChNl-148" value="" style="shape=partialRectangle;whiteSpace=wrap;html=1;right=0;top=0;bottom=0;fillColor=none;routingCenterX=-0.5;" vertex="1" parent="1">
          <mxGeometry x="610" y="740" width="40" height="50" as="geometry" />
        </mxCell>
        <mxCell id="rXJPLOeFARJxz8nDChNl-149" value="" style="shape=partialRectangle;whiteSpace=wrap;html=1;right=0;top=0;bottom=0;fillColor=none;routingCenterX=-0.5;" vertex="1" parent="1">
          <mxGeometry x="570" y="740" width="40" height="50" as="geometry" />
        </mxCell>
        <mxCell id="rXJPLOeFARJxz8nDChNl-150" value="Next" style="text;strokeColor=none;align=center;fillColor=none;html=1;verticalAlign=middle;whiteSpace=wrap;rounded=0;" vertex="1" parent="1">
          <mxGeometry x="615" y="755" width="30" height="20" as="geometry" />
        </mxCell>
        <mxCell id="rXJPLOeFARJxz8nDChNl-151" value="Data3" style="text;strokeColor=none;align=center;fillColor=none;html=1;verticalAlign=middle;whiteSpace=wrap;rounded=0;" vertex="1" parent="1">
          <mxGeometry x="570" y="755" width="40" height="20" as="geometry" />
        </mxCell>
        <mxCell id="rXJPLOeFARJxz8nDChNl-152" value="Prev" style="text;strokeColor=none;align=center;fillColor=none;html=1;verticalAlign=middle;whiteSpace=wrap;rounded=0;" vertex="1" parent="1">
          <mxGeometry x="530" y="755" width="40" height="20" as="geometry" />
        </mxCell>
      </root>
    </mxGraphModel>
  </diagram>
</mxfile>
